<svg width="48" height="48" viewBox="0 0 48 48" fill="none" xmlns="http://www.w3.org/2000/svg">
<g clip-path="url(#clip0_497_3772)">
<path d="M18 37.9989C8 40.9989 8 32.9989 4 31.9989M32 43.9989V36.2589C32.075 35.3052 31.9462 34.3465 31.622 33.4465C31.2979 32.5465 30.7859 31.7257 30.12 31.0389C36.4 30.3389 43 27.9589 43 17.0389C42.9995 14.2466 41.9254 11.5613 40 9.5389C40.9117 7.09591 40.8472 4.3956 39.82 1.9989C39.82 1.9989 37.46 1.2989 32 4.9589C27.416 3.71654 22.584 3.71654 18 4.9589C12.54 1.2989 10.18 1.9989 10.18 1.9989C9.15275 4.3956 9.08829 7.09591 10 9.5389C8.06025 11.5763 6.98505 14.2858 7 17.0989C7 27.9389 13.6 30.3189 19.88 31.0989C19.222 31.7788 18.7145 32.5897 18.3906 33.4787C18.0667 34.3678 17.9336 35.315 18 36.2589V43.9989" stroke="#36373B" stroke-width="4" stroke-linecap="round" stroke-linejoin="round"/>
</g>
<defs>
<clipPath id="clip0_497_3772">
<rect width="48" height="48" fill="white"/>
</clipPath>
</defs>
</svg>
